Simulation
nRows=37
nColumns=15
endheader
time  TH_x TH_y TH_z SC_y  SC_z  SC_x  AC_y  AC_z  AC_x  GH_y  GH_z  GH_yy  EL_x  PS_y
1.55  0.000000  0.000000  0.000000  -32.39044690605635  7.92951332563883  26.98036411127445  50.50731859128732  5.039635360958576  -7.088420023173794  23.72196414929637  55.975051546273455  -18.925804021035866  17.935387000650447  0.000000
1.581  0.000000  0.000000  0.000000  -32.73556139022056  8.203702679787003  27.51432998018292  50.48494708252712  5.159528323703675  -6.809431050557579  23.526981724998727  56.535176044275126  -18.941838411632045  17.90844634656916  0.000000
1.612  0.000000  0.000000  0.000000  -33.05192255528359  8.436953183246468  27.94483556093989  50.48621620981014  5.268965720688511  -6.527594378615019  23.323505659813144  57.0465586552688  -18.9240396762424  17.893014015819055  0.000000
1.643  0.000000  0.000000  0.000000  -33.33548888320668  8.622413460358828  28.274132171594225  50.51106322878008  5.373469071478042  -6.256203477528644  23.12083171225251  57.49382758417263  -18.88890914585995  17.89389405853911  0.000000
1.674  0.000000  0.000000  0.000000  -33.58699541075492  8.761424362177658  28.51316586323597  50.55137986825685  5.476272413056326  -6.008092024079524  22.94232997424761  57.85193641543996  -18.854517130718733  17.91056696470817  0.000000
1.705  0.000000  0.000000  0.000000  -33.81161631336353  8.862551838227702  28.68065151983199  50.59628444227316  5.573239481602775  -5.794460117047983  22.815754687741812  58.09446308536113  -18.831512896699078  17.937906380589737  0.000000
1.736  0.000000  0.000000  0.000000  -34.00680177901124  8.932997566351832  28.791026939502753  50.6351372534081  5.656371973721637  -5.627633361543501  22.760257081652597  58.202993328146135  -18.823320786931543  17.970006347974785  0.000000
1.767  0.000000  0.000000  0.000000  -34.16468989492464  8.976416198744053  28.851922180839928  50.6610628307377  5.716150538683544  -5.519323738327931  22.781532125156573  58.17109297072278  -18.829190999644656  18.001749956052834  0.000000
1.798  0.000000  0.000000  0.000000  -34.270540676964664  8.992228890320172  28.86117487882689  50.6703943759843  5.7434005326267785  -5.480204300516983  22.874840681566386  58.00289063593364  -18.84978281101242  18.02958051235254  0.000000
1.829  0.000000  0.000000  0.000000  -34.31008771263381  8.976920657185257  28.813795483530654  50.663326589471794  5.732088588938457  -5.517371927356632  23.030151904284825  57.70668090245994  -18.89073205334125  18.051314542445283  0.000000
1.8599999999999999  0.000000  0.000000  0.000000  -34.27356679846746  8.924703045899895  28.70410498607406  50.64561813462074  5.679277699128051  -5.631840007168269  23.238510788166035  57.2889397555239  -18.968971849463717  18.06560878269549  0.000000
1.891  0.000000  0.000000  0.000000  -34.16116230208689  8.828921148528783  28.530591939393773  50.628309206382696  5.5852377454998825  -5.818284180839236  23.491719699300923  56.752846337959284  -19.107805985522774  18.07267180296459  0.000000
1.922  0.000000  0.000000  0.000000  -33.977690292739034  8.683005583896488  28.289787389914228  50.6232121281  5.452646971115749  -6.066674729722924  23.78128599148625  56.10185198018698  -19.32756752138531  18.0733310366177  0.000000
1.953  0.000000  0.000000  0.000000  -33.73583515152383  8.485480573951845  27.974637794725265  50.638091140418574  5.284880591170881  -6.361633242967661  24.099451203713247  55.34476346121687  -19.63111488380258  18.07150787542158  0.000000
1.984  0.000000  0.000000  0.000000  -33.450050381048435  8.24039264695312  27.57363058304562  50.675040450850275  5.083770137555481  -6.685544499322508  24.437459539233863  54.49686711675903  -19.997120213382278  18.076570993340425  0.000000
2.015  0.000000  0.000000  0.000000  -33.13567950754249  7.9544269303469255  27.078158922463494  50.730561693119725  4.851783702948719  -7.0203085069128885  24.784171388984934  53.57537509830341  -20.384136744467735  18.099779723271222  0.000000
2.046  0.000000  0.000000  0.000000  -32.80396513188487  7.633058075269712  26.482658437155045  50.79672125677658  4.59584946060056  -7.35002255930937  25.129124189744726  52.5948348773221  -20.750212363492047  18.1498334218488  0.000000
2.077  0.000000  0.000000  0.000000  -32.467604105585075  7.2796628079399825  25.793399306825247  50.86791782083503  4.3248339327092395  -7.661853867181767  25.46332748618315  51.56447941170678  -21.06610301709402  18.228171005442704  0.000000
2.108  0.000000  0.000000  0.000000  -32.136151725935164  6.894767359051603  25.02434057688926  50.941099181016895  4.045907178846065  -7.9492528019636755  25.781723029476634  50.49065023201846  -21.321404116032234  18.329810256752893  0.000000
2.139  0.000000  0.000000  0.000000  -31.81785830908991  6.478859298609643  24.19176683557318  51.013357901584236  3.7640806688176562  -8.21002141498807  26.08447807327717  49.37920298518999  -21.519192643564423  18.447046986785406  0.000000
2.17  0.000000  0.000000  0.000000  -31.51441221662019  6.034282608180315  23.305859735779606  51.07881732856758  3.4820381634135433  -8.44406879088705  26.37478639560148  48.23716517361322  -21.66960445972648  18.572566019527528  0.000000
2.201  0.000000  0.000000  0.000000  -31.225913255830715  5.565194910584964  22.37447622763487  51.1304091558039  3.202386223301197  -8.650439082032026  26.653598611135436  47.070290098002836  -21.779311902439385  18.699699969731952  0.000000
2.232  0.000000  0.000000  0.000000  -30.95204753508376  5.076270999015939  21.403008708081863  51.16188743390339  2.9292835431974535  -8.827890873305543  26.9202635979514  45.88277687518559  -21.852225666342303  18.822945015706818  0.000000
2.263  0.000000  0.000000  0.000000  -30.696599546852624  4.57253941087053  20.401152442266767  51.171000213145106  2.667299142149244  -8.975615287042084  27.17045637270149  44.675993162788295  -21.885619038939684  18.938204568184045  0.000000
2.294  0.000000  0.000000  0.000000  -30.459632396058414  4.057630276721162  19.3798330191369  51.15709220452081  2.4219745936136454  -9.095047092023613  27.399492017805613  43.44900605366771  -21.874678186324367  19.041725146427726  0.000000
2.325  0.000000  0.000000  0.000000  -30.241244877647468  3.536456154249966  18.351677839932197  51.12070118786357  2.1982019595868754  -9.187749700411281  27.6039642817531  42.19866683978494  -21.812095617812258  19.131493035902395  0.000000
2.356  0.000000  0.000000  0.000000  -30.040001657384373  3.015802720626678  17.327614853948848  51.062705177069674  1.9996110948086165  -9.255413327066558  27.785436902230757  40.91995570325953  -21.694680577456673  19.207544454710956  0.000000
2.387  0.000000  0.000000  0.000000  -29.855450352943983  2.5029040792203214  16.31714463978812  50.98424150858352  1.8278183300877286  -9.298710548999486  27.946208881720114  39.60751692533893  -21.521828363014016  19.27152683778204  0.000000
2.418  0.000000  0.000000  0.000000  -29.684125947999572  2.005246955216051  15.325866989425556  50.88565944243753  1.683304385546488  -9.318629581086944  28.090859221729676  38.25557218592992  -21.299166400535775  19.326130090890842  0.000000
2.449  0.000000  0.000000  0.000000  -29.524010467736403  1.5298258654854946  14.358030192453421  50.767161838728725  1.5647083562909103  -9.31491471082471  28.22207001590659  36.85897047517307  -21.03343666827969  19.375044498062405  0.000000
2.48  0.000000  0.000000  0.000000  -29.372497833127035  1.0818650365447895  13.416778012329734  50.63084184485357  1.4715731253921474  -9.288873397504787  28.345288485046936  35.4128442051106  -20.737813786995584  19.421013122540018  0.000000
2.511  0.000000  0.000000  0.000000  -29.229885453002456  0.6636939950323048  12.507084413664487  50.48053721230518  1.4033008052143034  -9.241779953954735  28.464896647156028  33.913894243549  -20.426383879394344  19.4653855272875  0.000000
2.542  0.000000  0.000000  0.000000  -29.09681867550157  0.27571599028338134  11.634808913104777  50.3223174989694  1.3603923506229425  -9.177371661415881  28.590885537275206  32.360221959347676  -20.11959638808146  19.50845817196519  0.000000
2.573  0.000000  0.000000  0.000000  -28.975256309284326  -0.08156581603449808  10.806594374806544  50.161750504241496  1.3411223304937985  -9.098214669207106  28.73168628085279  30.75252411434873  -19.833349044028893  19.549846513986186  0.000000
2.604  0.000000  0.000000  0.000000  -28.86334951339752  -0.4062921879897297  10.028002562018807  50.00237305368259  1.343032773324913  -9.00787629393911  28.89758504259016  29.09270741220237  -19.578971826234678  19.589918426668948  0.000000
2.635  0.000000  0.000000  0.000000  -28.758230223556797  -0.6937351792169665  9.302146333639207  49.844614849744644  1.3606932700855947  -8.906952266572764  29.092887774598506  27.385292645641165  -19.35460811465685  19.628598026547003  0.000000
2.666  0.000000  0.000000  0.000000  -28.654429707377826  -0.9393711277790342  8.62900021358012  49.68713776443076  1.3900404393706305  -8.796465801414733  29.321030029321594  25.636550109390143  -19.15295756426885  19.6676271962463  0.000000
